<mxfile host="devvmand001" agent="Mozilla/5.0 (Windows NT 10.0; Win64; x64) AppleWebKit/537.36 (KHTML, like Gecko) Chrome/115.0.0.0 Safari/537.36" version="24.7.5" pages="3">
  <diagram name="Page-1" id="pbcTZh8GHBpGLhXNIeBB">
    <mxGraphModel dx="2261" dy="821" grid="1" gridSize="10" guides="1" tooltips="1" connect="1" arrows="1" fold="1" page="1" pageScale="1" pageWidth="827" pageHeight="1169" math="0" shadow="0">
      <root>
        <mxCell id="0" />
        <mxCell id="1" parent="0" />
        <mxCell id="Z4i8T66TRp5-hyZMOipv-3" value="360&lt;div&gt;100M&lt;/div&gt;" style="rounded=0;whiteSpace=wrap;html=1;" vertex="1" parent="1">
          <mxGeometry x="-110" y="420" width="120" height="60" as="geometry" />
        </mxCell>
        <mxCell id="Z4i8T66TRp5-hyZMOipv-4" value="K" style="rounded=0;whiteSpace=wrap;html=1;" vertex="1" parent="1">
          <mxGeometry x="610" y="1080" width="120" height="60" as="geometry" />
        </mxCell>
        <mxCell id="Z4i8T66TRp5-hyZMOipv-5" value="pfSense" style="rounded=0;whiteSpace=wrap;html=1;" vertex="1" parent="1">
          <mxGeometry x="20" y="1070" width="120" height="60" as="geometry" />
        </mxCell>
        <mxCell id="Z4i8T66TRp5-hyZMOipv-6" value="5G WAN" style="rounded=0;whiteSpace=wrap;html=1;" vertex="1" parent="1">
          <mxGeometry x="120" y="420" width="120" height="60" as="geometry" />
        </mxCell>
        <mxCell id="Z4i8T66TRp5-hyZMOipv-7" value="Proxmox&lt;div&gt;2.5G&lt;/div&gt;" style="rounded=0;whiteSpace=wrap;html=1;" vertex="1" parent="1">
          <mxGeometry x="160" y="1070" width="120" height="60" as="geometry" />
        </mxCell>
        <mxCell id="Z4i8T66TRp5-hyZMOipv-12" style="edgeStyle=orthogonalEdgeStyle;rounded=0;orthogonalLoop=1;jettySize=auto;html=1;entryX=0.5;entryY=0;entryDx=0;entryDy=0;" edge="1" parent="1" source="OeohPNouyVNZ0SFP6d9K-26" target="Z9bdR9n9GlLmIkL_PWtc-4">
          <mxGeometry relative="1" as="geometry">
            <mxPoint x="180" y="630" as="sourcePoint" />
            <mxPoint x="180" y="820" as="targetPoint" />
          </mxGeometry>
        </mxCell>
        <mxCell id="Z9bdR9n9GlLmIkL_PWtc-2" value="LC-LC-OM3" style="edgeLabel;html=1;align=center;verticalAlign=middle;resizable=0;points=[];" vertex="1" connectable="0" parent="Z4i8T66TRp5-hyZMOipv-12">
          <mxGeometry x="0.2334" y="3" relative="1" as="geometry">
            <mxPoint as="offset" />
          </mxGeometry>
        </mxCell>
        <mxCell id="Z4i8T66TRp5-hyZMOipv-11" value="NAS&lt;div&gt;10G&lt;/div&gt;" style="rounded=0;whiteSpace=wrap;html=1;" vertex="1" parent="1">
          <mxGeometry x="300" y="1070" width="120" height="60" as="geometry" />
        </mxCell>
        <mxCell id="Z4i8T66TRp5-hyZMOipv-17" value="SG1210MPE&lt;div&gt;&lt;div&gt;8 x 1GBase POE+&lt;/div&gt;&lt;div&gt;1GE Combo SFP&lt;/div&gt;&lt;/div&gt;&lt;div&gt;Smart Fanless&lt;/div&gt;&lt;div&gt;&lt;br&gt;&lt;/div&gt;&lt;div&gt;RM400&lt;/div&gt;" style="rounded=0;whiteSpace=wrap;html=1;" vertex="1" parent="1">
          <mxGeometry x="-380" y="610" width="120" height="90" as="geometry" />
        </mxCell>
        <mxCell id="Z4i8T66TRp5-hyZMOipv-19" value="EAP783&lt;div&gt;2x 10GBase&lt;/div&gt;&lt;div&gt;RM3500&lt;/div&gt;" style="text;html=1;align=center;verticalAlign=middle;resizable=0;points=[];autosize=1;strokeColor=default;" vertex="1" parent="1">
          <mxGeometry x="-410" y="940" width="90" height="60" as="geometry" />
        </mxCell>
        <mxCell id="Z9bdR9n9GlLmIkL_PWtc-1" value="SX3008F&lt;div&gt;8x10GE SFP+&lt;/div&gt;&lt;div&gt;Managed Fanless&lt;/div&gt;&lt;div&gt;RM840&lt;/div&gt;" style="rounded=0;whiteSpace=wrap;html=1;" vertex="1" parent="1">
          <mxGeometry x="-250" y="700" width="120" height="60" as="geometry" />
        </mxCell>
        <mxCell id="Z9bdR9n9GlLmIkL_PWtc-3" value="&lt;span style=&quot;color: rgb(80, 82, 85); font-family: AktivGrotesk-Corp, Helvetica, sans-serif; font-size: 22px; font-style: normal; font-variant-ligatures: normal; font-variant-caps: normal; font-weight: 700; letter-spacing: normal; orphans: 2; text-align: start; text-indent: 0px; text-transform: none; widows: 2; word-spacing: 0px; -webkit-text-stroke: 1px rgba(0, 0, 0, 0); white-space: normal; background-color: rgb(255, 255, 255); text-decoration-thickness: initial; text-decoration-style: initial; text-decoration-color: initial; display: inline !important; float: none;&quot;&gt;TL-SM5110-SR&lt;/span&gt;" style="text;whiteSpace=wrap;html=1;" vertex="1" parent="1">
          <mxGeometry x="960" y="550" width="190" height="50" as="geometry" />
        </mxCell>
        <mxCell id="Z9bdR9n9GlLmIkL_PWtc-4" value="TL-SM5110-SR&lt;div&gt;RM 115&lt;/div&gt;" style="rounded=0;whiteSpace=wrap;html=1;fontSize=9;horizontal=1;textDirection=vertical-rl;fontStyle=0" vertex="1" parent="1">
          <mxGeometry x="165" y="830" width="30" height="70" as="geometry" />
        </mxCell>
        <mxCell id="Z9bdR9n9GlLmIkL_PWtc-5" value="TL-SM5310-T&lt;div&gt;RM 300&lt;/div&gt;" style="rounded=0;whiteSpace=wrap;html=1;fontSize=9;horizontal=1;textDirection=vertical-lr;fontStyle=1;rotation=-90;" vertex="1" parent="1">
          <mxGeometry x="-20" y="780" width="30" height="70" as="geometry" />
        </mxCell>
        <mxCell id="OeohPNouyVNZ0SFP6d9K-8" style="edgeStyle=orthogonalEdgeStyle;rounded=0;orthogonalLoop=1;jettySize=auto;html=1;" edge="1" parent="1">
          <mxGeometry relative="1" as="geometry">
            <mxPoint x="390" y="969.17" as="targetPoint" />
            <mxPoint x="270" y="969.17" as="sourcePoint" />
          </mxGeometry>
        </mxCell>
        <mxCell id="OeohPNouyVNZ0SFP6d9K-1" value="TL-SX3206HPP&lt;div&gt;4x10GBase POE&lt;/div&gt;&lt;div&gt;2x10GE SFP+&lt;/div&gt;&lt;div&gt;Managed 2x Fan&lt;/div&gt;&lt;div&gt;&lt;br&gt;&lt;/div&gt;&lt;div&gt;RM2350&lt;/div&gt;" style="rounded=0;whiteSpace=wrap;html=1;" vertex="1" parent="1">
          <mxGeometry x="-250" y="1010" width="120" height="110" as="geometry" />
        </mxCell>
        <mxCell id="OeohPNouyVNZ0SFP6d9K-3" value="IP Cam 1G POE" style="rounded=0;whiteSpace=wrap;html=1;" vertex="1" parent="1">
          <mxGeometry x="540" y="770" width="120" height="60" as="geometry" />
        </mxCell>
        <mxCell id="OeohPNouyVNZ0SFP6d9K-13" style="edgeStyle=orthogonalEdgeStyle;rounded=0;orthogonalLoop=1;jettySize=auto;html=1;" edge="1" parent="1" target="OeohPNouyVNZ0SFP6d9K-3">
          <mxGeometry relative="1" as="geometry">
            <mxPoint x="250" y="930" as="sourcePoint" />
          </mxGeometry>
        </mxCell>
        <mxCell id="OeohPNouyVNZ0SFP6d9K-19" style="edgeStyle=orthogonalEdgeStyle;rounded=0;orthogonalLoop=1;jettySize=auto;html=1;entryX=0;entryY=0.5;entryDx=0;entryDy=0;" edge="1" parent="1" target="OeohPNouyVNZ0SFP6d9K-16">
          <mxGeometry relative="1" as="geometry">
            <mxPoint x="250" y="910" as="sourcePoint" />
            <Array as="points">
              <mxPoint x="250" y="911" />
              <mxPoint x="410" y="911" />
              <mxPoint x="410" y="720" />
            </Array>
          </mxGeometry>
        </mxCell>
        <mxCell id="OeohPNouyVNZ0SFP6d9K-20" style="edgeStyle=orthogonalEdgeStyle;rounded=0;orthogonalLoop=1;jettySize=auto;html=1;entryX=0;entryY=0.5;entryDx=0;entryDy=0;" edge="1" parent="1" target="OeohPNouyVNZ0SFP6d9K-17">
          <mxGeometry relative="1" as="geometry">
            <mxPoint x="250" y="890" as="sourcePoint" />
          </mxGeometry>
        </mxCell>
        <mxCell id="OeohPNouyVNZ0SFP6d9K-16" value="IP Cam 1G POE" style="rounded=0;whiteSpace=wrap;html=1;" vertex="1" parent="1">
          <mxGeometry x="540" y="690" width="120" height="60" as="geometry" />
        </mxCell>
        <mxCell id="OeohPNouyVNZ0SFP6d9K-17" value="IP Cam 1G POE" style="rounded=0;whiteSpace=wrap;html=1;" vertex="1" parent="1">
          <mxGeometry x="540" y="610" width="120" height="60" as="geometry" />
        </mxCell>
        <mxCell id="OeohPNouyVNZ0SFP6d9K-21" value="SG2210XMP-M2&lt;div&gt;8x2.5GBase POE+&lt;/div&gt;&lt;div&gt;2x10GE SFP+&lt;/div&gt;&lt;div&gt;Smart Fanless&lt;/div&gt;&lt;div&gt;RM 1450&lt;/div&gt;" style="rounded=0;whiteSpace=wrap;html=1;" vertex="1" parent="1">
          <mxGeometry x="120" y="900" width="120" height="90" as="geometry" />
        </mxCell>
        <mxCell id="OeohPNouyVNZ0SFP6d9K-22" value="SG3210X-M2&lt;div&gt;8x2.5GBase&lt;/div&gt;&lt;div&gt;2x10GE SFP+&lt;/div&gt;&lt;div&gt;Managed Fanless&lt;/div&gt;&lt;div&gt;RM 990&lt;/div&gt;" style="rounded=0;whiteSpace=wrap;html=1;" vertex="1" parent="1">
          <mxGeometry x="-250" y="790" width="120" height="90" as="geometry" />
        </mxCell>
        <mxCell id="OeohPNouyVNZ0SFP6d9K-23" value="EAP772&lt;div&gt;1 x 2.5GBase&amp;nbsp;&lt;/div&gt;&lt;div&gt;RM990&lt;/div&gt;" style="text;html=1;align=center;verticalAlign=middle;resizable=0;points=[];autosize=1;strokeColor=default;" vertex="1" parent="1">
          <mxGeometry x="410" y="960" width="100" height="60" as="geometry" />
        </mxCell>
        <mxCell id="OeohPNouyVNZ0SFP6d9K-24" value="SG3210XHP-M2&lt;div&gt;8x2.5GBase POE+&lt;/div&gt;&lt;div&gt;2x10GE SFP+&lt;/div&gt;&lt;div&gt;Managed 2x Fan&lt;/div&gt;&lt;div&gt;RM 1600&lt;/div&gt;" style="rounded=0;whiteSpace=wrap;html=1;" vertex="1" parent="1">
          <mxGeometry x="-250" y="900" width="120" height="90" as="geometry" />
        </mxCell>
        <mxCell id="OeohPNouyVNZ0SFP6d9K-25" value="SG2210XMP-M2&lt;div&gt;8x2.5GBase POE+&lt;/div&gt;&lt;div&gt;2x10GE SFP+&lt;/div&gt;&lt;div&gt;Smart Fanless&lt;/div&gt;&lt;div&gt;RM 1450&lt;/div&gt;" style="rounded=0;whiteSpace=wrap;html=1;" vertex="1" parent="1">
          <mxGeometry x="120" y="520" width="120" height="90" as="geometry" />
        </mxCell>
        <mxCell id="OeohPNouyVNZ0SFP6d9K-27" value="" style="edgeStyle=orthogonalEdgeStyle;rounded=0;orthogonalLoop=1;jettySize=auto;html=1;entryX=0.5;entryY=0;entryDx=0;entryDy=0;" edge="1" parent="1" target="OeohPNouyVNZ0SFP6d9K-26">
          <mxGeometry relative="1" as="geometry">
            <mxPoint x="180" y="630" as="sourcePoint" />
            <mxPoint x="180" y="830" as="targetPoint" />
          </mxGeometry>
        </mxCell>
        <mxCell id="OeohPNouyVNZ0SFP6d9K-26" value="TL-SM5110-SR&lt;div&gt;RM 115&lt;/div&gt;" style="rounded=0;whiteSpace=wrap;html=1;fontSize=9;horizontal=1;textDirection=vertical-rl;fontStyle=0" vertex="1" parent="1">
          <mxGeometry x="165" y="610" width="30" height="70" as="geometry" />
        </mxCell>
      </root>
    </mxGraphModel>
  </diagram>
  <diagram name="Copy of Page-1" id="Lj-VovJ5K9fjIuEtGVKG">
    <mxGraphModel dx="2261" dy="821" grid="1" gridSize="10" guides="1" tooltips="1" connect="1" arrows="1" fold="1" page="1" pageScale="1" pageWidth="827" pageHeight="1169" math="0" shadow="0">
      <root>
        <mxCell id="eAYGPAcNpQr_43S9VWzx-0" />
        <mxCell id="eAYGPAcNpQr_43S9VWzx-1" parent="eAYGPAcNpQr_43S9VWzx-0" />
        <mxCell id="eAYGPAcNpQr_43S9VWzx-2" value="360&lt;div&gt;100M&lt;/div&gt;" style="rounded=0;whiteSpace=wrap;html=1;" vertex="1" parent="eAYGPAcNpQr_43S9VWzx-1">
          <mxGeometry x="-240" y="340" width="120" height="60" as="geometry" />
        </mxCell>
        <mxCell id="O92i0cZraoN64cPFJsai-16" style="edgeStyle=orthogonalEdgeStyle;rounded=0;orthogonalLoop=1;jettySize=auto;html=1;exitX=0.5;exitY=1;exitDx=0;exitDy=0;" edge="1" parent="eAYGPAcNpQr_43S9VWzx-1" source="eAYGPAcNpQr_43S9VWzx-3" target="O92i0cZraoN64cPFJsai-1">
          <mxGeometry relative="1" as="geometry" />
        </mxCell>
        <mxCell id="eAYGPAcNpQr_43S9VWzx-3" value="K" style="rounded=0;whiteSpace=wrap;html=1;" vertex="1" parent="eAYGPAcNpQr_43S9VWzx-1">
          <mxGeometry x="354" y="520" width="120" height="60" as="geometry" />
        </mxCell>
        <mxCell id="eAYGPAcNpQr_43S9VWzx-4" value="pfSense" style="rounded=0;whiteSpace=wrap;html=1;" vertex="1" parent="eAYGPAcNpQr_43S9VWzx-1">
          <mxGeometry x="20" y="1070" width="120" height="60" as="geometry" />
        </mxCell>
        <mxCell id="eAYGPAcNpQr_43S9VWzx-5" value="5G WAN" style="rounded=0;whiteSpace=wrap;html=1;" vertex="1" parent="eAYGPAcNpQr_43S9VWzx-1">
          <mxGeometry x="60" y="420" width="117" height="60" as="geometry" />
        </mxCell>
        <mxCell id="eAYGPAcNpQr_43S9VWzx-6" value="Proxmox&lt;div&gt;2.5G&lt;/div&gt;" style="rounded=0;whiteSpace=wrap;html=1;" vertex="1" parent="eAYGPAcNpQr_43S9VWzx-1">
          <mxGeometry x="160" y="1070" width="120" height="60" as="geometry" />
        </mxCell>
        <mxCell id="eAYGPAcNpQr_43S9VWzx-7" style="edgeStyle=orthogonalEdgeStyle;rounded=0;orthogonalLoop=1;jettySize=auto;html=1;entryX=0.5;entryY=0;entryDx=0;entryDy=0;exitX=0.5;exitY=1;exitDx=0;exitDy=0;" edge="1" parent="eAYGPAcNpQr_43S9VWzx-1" source="eAYGPAcNpQr_43S9VWzx-30" target="eAYGPAcNpQr_43S9VWzx-14">
          <mxGeometry relative="1" as="geometry">
            <mxPoint x="160" y="720" as="sourcePoint" />
            <mxPoint x="120" y="820" as="targetPoint" />
          </mxGeometry>
        </mxCell>
        <mxCell id="eAYGPAcNpQr_43S9VWzx-8" value="LC-LC-OM3" style="edgeLabel;html=1;align=center;verticalAlign=middle;resizable=0;points=[];" vertex="1" connectable="0" parent="eAYGPAcNpQr_43S9VWzx-7">
          <mxGeometry x="0.2334" y="3" relative="1" as="geometry">
            <mxPoint as="offset" />
          </mxGeometry>
        </mxCell>
        <mxCell id="eAYGPAcNpQr_43S9VWzx-9" value="NAS&lt;div&gt;10G&lt;/div&gt;" style="rounded=0;whiteSpace=wrap;html=1;" vertex="1" parent="eAYGPAcNpQr_43S9VWzx-1">
          <mxGeometry x="300" y="1070" width="120" height="60" as="geometry" />
        </mxCell>
        <mxCell id="eAYGPAcNpQr_43S9VWzx-10" value="SG1210MPE&lt;div&gt;&lt;div&gt;8 x 1GBase POE+&lt;/div&gt;&lt;div&gt;1GE Combo SFP&lt;/div&gt;&lt;/div&gt;&lt;div&gt;Smart Fanless&lt;/div&gt;&lt;div&gt;&lt;br&gt;&lt;/div&gt;&lt;div&gt;RM400&lt;/div&gt;" style="rounded=0;whiteSpace=wrap;html=1;" vertex="1" parent="eAYGPAcNpQr_43S9VWzx-1">
          <mxGeometry x="-380" y="610" width="120" height="90" as="geometry" />
        </mxCell>
        <mxCell id="eAYGPAcNpQr_43S9VWzx-11" value="EAP783&lt;div&gt;2x 10GBase&lt;/div&gt;&lt;div&gt;RM3500&lt;/div&gt;" style="text;html=1;align=center;verticalAlign=middle;resizable=0;points=[];autosize=1;strokeColor=default;" vertex="1" parent="eAYGPAcNpQr_43S9VWzx-1">
          <mxGeometry x="-410" y="940" width="90" height="60" as="geometry" />
        </mxCell>
        <mxCell id="eAYGPAcNpQr_43S9VWzx-12" value="SX3008F&lt;div&gt;8x10GE SFP+&lt;/div&gt;&lt;div&gt;Managed Fanless&lt;/div&gt;&lt;div&gt;RM840&lt;/div&gt;" style="rounded=0;whiteSpace=wrap;html=1;" vertex="1" parent="eAYGPAcNpQr_43S9VWzx-1">
          <mxGeometry x="60" y="900" width="280" height="60" as="geometry" />
        </mxCell>
        <mxCell id="eAYGPAcNpQr_43S9VWzx-13" value="&lt;span style=&quot;color: rgb(80, 82, 85); font-family: AktivGrotesk-Corp, Helvetica, sans-serif; font-size: 22px; font-style: normal; font-variant-ligatures: normal; font-variant-caps: normal; font-weight: 700; letter-spacing: normal; orphans: 2; text-align: start; text-indent: 0px; text-transform: none; widows: 2; word-spacing: 0px; -webkit-text-stroke: 1px rgba(0, 0, 0, 0); white-space: normal; background-color: rgb(255, 255, 255); text-decoration-thickness: initial; text-decoration-style: initial; text-decoration-color: initial; display: inline !important; float: none;&quot;&gt;TL-SM5110-SR&lt;/span&gt;" style="text;whiteSpace=wrap;html=1;" vertex="1" parent="eAYGPAcNpQr_43S9VWzx-1">
          <mxGeometry x="960" y="550" width="190" height="50" as="geometry" />
        </mxCell>
        <mxCell id="eAYGPAcNpQr_43S9VWzx-14" value="TL-SM5110-SR&lt;div&gt;RM 115&lt;/div&gt;" style="rounded=0;whiteSpace=wrap;html=1;fontSize=9;horizontal=1;textDirection=vertical-rl;fontStyle=0" vertex="1" parent="eAYGPAcNpQr_43S9VWzx-1">
          <mxGeometry x="105" y="830" width="27" height="70" as="geometry" />
        </mxCell>
        <mxCell id="eAYGPAcNpQr_43S9VWzx-15" value="10G&lt;div&gt;TL-SM5310-T&lt;div&gt;RM 300&lt;/div&gt;&lt;/div&gt;" style="rounded=0;whiteSpace=wrap;html=1;fontSize=9;horizontal=1;textDirection=vertical-rl;fontStyle=1;rotation=-90;" vertex="1" parent="eAYGPAcNpQr_43S9VWzx-1">
          <mxGeometry x="242" y="949" width="47" height="70" as="geometry" />
        </mxCell>
        <mxCell id="eAYGPAcNpQr_43S9VWzx-16" style="edgeStyle=orthogonalEdgeStyle;rounded=0;orthogonalLoop=1;jettySize=auto;html=1;" edge="1" parent="eAYGPAcNpQr_43S9VWzx-1">
          <mxGeometry relative="1" as="geometry">
            <mxPoint x="430" y="983.5" as="targetPoint" />
            <mxPoint x="310" y="983.5" as="sourcePoint" />
          </mxGeometry>
        </mxCell>
        <mxCell id="eAYGPAcNpQr_43S9VWzx-17" value="TL-SX3206HPP&lt;div&gt;4x10GBase POE&lt;/div&gt;&lt;div&gt;2x10GE SFP+&lt;/div&gt;&lt;div&gt;Managed 2x Fan&lt;/div&gt;&lt;div&gt;&lt;br&gt;&lt;/div&gt;&lt;div&gt;RM2350&lt;/div&gt;" style="rounded=0;whiteSpace=wrap;html=1;" vertex="1" parent="eAYGPAcNpQr_43S9VWzx-1">
          <mxGeometry x="-250" y="1010" width="120" height="110" as="geometry" />
        </mxCell>
        <mxCell id="O92i0cZraoN64cPFJsai-21" style="edgeStyle=orthogonalEdgeStyle;rounded=0;orthogonalLoop=1;jettySize=auto;html=1;entryX=0.25;entryY=1;entryDx=0;entryDy=0;" edge="1" parent="eAYGPAcNpQr_43S9VWzx-1" source="eAYGPAcNpQr_43S9VWzx-18" target="O92i0cZraoN64cPFJsai-1">
          <mxGeometry relative="1" as="geometry" />
        </mxCell>
        <mxCell id="eAYGPAcNpQr_43S9VWzx-18" value="IP Cam 1G POE" style="rounded=0;whiteSpace=wrap;html=1;" vertex="1" parent="eAYGPAcNpQr_43S9VWzx-1">
          <mxGeometry x="700" y="870" width="120" height="60" as="geometry" />
        </mxCell>
        <mxCell id="O92i0cZraoN64cPFJsai-20" style="edgeStyle=orthogonalEdgeStyle;rounded=0;orthogonalLoop=1;jettySize=auto;html=1;entryX=0.5;entryY=1;entryDx=0;entryDy=0;" edge="1" parent="eAYGPAcNpQr_43S9VWzx-1" source="eAYGPAcNpQr_43S9VWzx-22" target="O92i0cZraoN64cPFJsai-1">
          <mxGeometry relative="1" as="geometry">
            <Array as="points">
              <mxPoint x="600" y="800" />
              <mxPoint x="600" y="804" />
            </Array>
          </mxGeometry>
        </mxCell>
        <mxCell id="eAYGPAcNpQr_43S9VWzx-22" value="IP Cam 1G POE" style="rounded=0;whiteSpace=wrap;html=1;" vertex="1" parent="eAYGPAcNpQr_43S9VWzx-1">
          <mxGeometry x="700" y="790" width="120" height="60" as="geometry" />
        </mxCell>
        <mxCell id="O92i0cZraoN64cPFJsai-19" style="edgeStyle=orthogonalEdgeStyle;rounded=0;orthogonalLoop=1;jettySize=auto;html=1;entryX=0.75;entryY=1;entryDx=0;entryDy=0;" edge="1" parent="eAYGPAcNpQr_43S9VWzx-1" source="eAYGPAcNpQr_43S9VWzx-23" target="O92i0cZraoN64cPFJsai-1">
          <mxGeometry relative="1" as="geometry" />
        </mxCell>
        <mxCell id="eAYGPAcNpQr_43S9VWzx-23" value="IP Cam 1G POE" style="rounded=0;whiteSpace=wrap;html=1;" vertex="1" parent="eAYGPAcNpQr_43S9VWzx-1">
          <mxGeometry x="700" y="710" width="120" height="60" as="geometry" />
        </mxCell>
        <mxCell id="eAYGPAcNpQr_43S9VWzx-25" value="SG3210X-M2&lt;div&gt;8x2.5GBase&lt;/div&gt;&lt;div&gt;2x10GE SFP+&lt;/div&gt;&lt;div&gt;Managed Fanless&lt;/div&gt;&lt;div&gt;RM 990&lt;/div&gt;" style="rounded=0;whiteSpace=wrap;html=1;" vertex="1" parent="eAYGPAcNpQr_43S9VWzx-1">
          <mxGeometry x="-250" y="790" width="120" height="90" as="geometry" />
        </mxCell>
        <mxCell id="eAYGPAcNpQr_43S9VWzx-26" value="EAP772&lt;div&gt;1 x 2.5GBase&amp;nbsp;&lt;/div&gt;&lt;div&gt;RM990&lt;/div&gt;" style="text;html=1;align=center;verticalAlign=middle;resizable=0;points=[];autosize=1;strokeColor=default;" vertex="1" parent="eAYGPAcNpQr_43S9VWzx-1">
          <mxGeometry x="440" y="954" width="100" height="60" as="geometry" />
        </mxCell>
        <mxCell id="eAYGPAcNpQr_43S9VWzx-27" value="SG3210XHP-M2&lt;div&gt;8x2.5GBase POE+&lt;/div&gt;&lt;div&gt;2x10GE SFP+&lt;/div&gt;&lt;div&gt;Managed 2x Fan&lt;/div&gt;&lt;div&gt;RM 1600&lt;/div&gt;" style="rounded=0;whiteSpace=wrap;html=1;" vertex="1" parent="eAYGPAcNpQr_43S9VWzx-1">
          <mxGeometry x="-250" y="900" width="120" height="90" as="geometry" />
        </mxCell>
        <mxCell id="eAYGPAcNpQr_43S9VWzx-28" value="SG2210XMP-M2&lt;div&gt;8x2.5GBase POE+&lt;/div&gt;&lt;div&gt;2x10GE SFP+&lt;/div&gt;&lt;div&gt;Smart Fanless&lt;/div&gt;&lt;div&gt;RM 1450&lt;/div&gt;" style="rounded=0;whiteSpace=wrap;html=1;" vertex="1" parent="eAYGPAcNpQr_43S9VWzx-1">
          <mxGeometry x="60" y="520" width="117" height="90" as="geometry" />
        </mxCell>
        <mxCell id="eAYGPAcNpQr_43S9VWzx-29" value="" style="edgeStyle=orthogonalEdgeStyle;rounded=0;orthogonalLoop=1;jettySize=auto;html=1;entryX=0.5;entryY=0;entryDx=0;entryDy=0;" edge="1" parent="eAYGPAcNpQr_43S9VWzx-1" target="eAYGPAcNpQr_43S9VWzx-30">
          <mxGeometry relative="1" as="geometry">
            <mxPoint x="120" y="630" as="sourcePoint" />
            <mxPoint x="120" y="830" as="targetPoint" />
          </mxGeometry>
        </mxCell>
        <mxCell id="eAYGPAcNpQr_43S9VWzx-30" value="TL-SM5110-SR&lt;div&gt;RM 115&lt;/div&gt;" style="rounded=0;whiteSpace=wrap;html=1;fontSize=9;horizontal=1;textDirection=vertical-rl;fontStyle=0" vertex="1" parent="eAYGPAcNpQr_43S9VWzx-1">
          <mxGeometry x="105" y="610" width="27" height="70" as="geometry" />
        </mxCell>
        <mxCell id="O92i0cZraoN64cPFJsai-0" value="TL-SM331T&lt;div&gt;1G&lt;br&gt;&lt;div&gt;&lt;div&gt;RM 120&lt;/div&gt;&lt;/div&gt;&lt;/div&gt;" style="rounded=0;whiteSpace=wrap;html=1;fontSize=9;horizontal=1;fontStyle=1;rotation=-90;textDirection=vertical-rl;" vertex="1" parent="eAYGPAcNpQr_43S9VWzx-1">
          <mxGeometry x="356" y="884" width="37" height="70" as="geometry" />
        </mxCell>
        <mxCell id="O92i0cZraoN64cPFJsai-1" value="&lt;span style=&quot;font-weight: normal;&quot;&gt;SG108PE&lt;/span&gt;&lt;div&gt;&lt;span style=&quot;font-weight: normal;&quot;&gt;4x1G POE+&lt;/span&gt;&lt;/div&gt;&lt;div&gt;&lt;span style=&quot;font-weight: normal;&quot;&gt;4x1G&lt;/span&gt;&lt;/div&gt;&lt;div&gt;&lt;span style=&quot;font-weight: normal;&quot;&gt;Smart Fanless&lt;/span&gt;&lt;/div&gt;&lt;div&gt;&lt;span style=&quot;font-weight: normal;&quot;&gt;RM190&lt;/span&gt;&lt;/div&gt;" style="rounded=0;whiteSpace=wrap;html=1;fontSize=9;horizontal=1;fontStyle=1;rotation=-90;textDirection=vertical-rl;" vertex="1" parent="eAYGPAcNpQr_43S9VWzx-1">
          <mxGeometry x="390" y="724" width="58.75" height="160" as="geometry" />
        </mxCell>
        <mxCell id="O92i0cZraoN64cPFJsai-17" style="edgeStyle=orthogonalEdgeStyle;rounded=0;orthogonalLoop=1;jettySize=auto;html=1;exitX=0.5;exitY=1;exitDx=0;exitDy=0;entryX=1;entryY=0.25;entryDx=0;entryDy=0;" edge="1" parent="eAYGPAcNpQr_43S9VWzx-1" source="O92i0cZraoN64cPFJsai-2" target="O92i0cZraoN64cPFJsai-1">
          <mxGeometry relative="1" as="geometry" />
        </mxCell>
        <mxCell id="O92i0cZraoN64cPFJsai-2" value="TV" style="rounded=0;whiteSpace=wrap;html=1;" vertex="1" parent="eAYGPAcNpQr_43S9VWzx-1">
          <mxGeometry x="280" y="600" width="120" height="60" as="geometry" />
        </mxCell>
        <mxCell id="O92i0cZraoN64cPFJsai-18" style="edgeStyle=orthogonalEdgeStyle;rounded=0;orthogonalLoop=1;jettySize=auto;html=1;entryX=1;entryY=0.75;entryDx=0;entryDy=0;" edge="1" parent="eAYGPAcNpQr_43S9VWzx-1" source="O92i0cZraoN64cPFJsai-11" target="O92i0cZraoN64cPFJsai-1">
          <mxGeometry relative="1" as="geometry" />
        </mxCell>
        <mxCell id="O92i0cZraoN64cPFJsai-11" value="TV" style="rounded=0;whiteSpace=wrap;html=1;" vertex="1" parent="eAYGPAcNpQr_43S9VWzx-1">
          <mxGeometry x="430" y="600" width="120" height="60" as="geometry" />
        </mxCell>
        <mxCell id="O92i0cZraoN64cPFJsai-14" value="EAP773&lt;div&gt;1x 10GBase&lt;/div&gt;&lt;div&gt;RM3500&lt;/div&gt;" style="text;html=1;align=center;verticalAlign=middle;resizable=0;points=[];autosize=1;strokeColor=default;" vertex="1" parent="eAYGPAcNpQr_43S9VWzx-1">
          <mxGeometry x="-225" y="604" width="90" height="60" as="geometry" />
        </mxCell>
      </root>
    </mxGraphModel>
  </diagram>
  <diagram id="EvEnjDoFt7nIhmcgwPZU" name="Page-2">
    <mxGraphModel dx="1434" dy="878" grid="1" gridSize="10" guides="1" tooltips="1" connect="1" arrows="1" fold="1" page="1" pageScale="1" pageWidth="827" pageHeight="1169" math="0" shadow="0">
      <root>
        <mxCell id="0" />
        <mxCell id="1" parent="0" />
        <mxCell id="G1tx_gsNzhjHlp4Y_8nj-1" value="TL-SX3206HPP&lt;div&gt;4x10GBase&lt;/div&gt;&lt;div&gt;2x10GE SFP+&lt;/div&gt;" style="rounded=0;whiteSpace=wrap;html=1;" vertex="1" parent="1">
          <mxGeometry x="70" y="500" width="120" height="60" as="geometry" />
        </mxCell>
        <mxCell id="G1tx_gsNzhjHlp4Y_8nj-2" value="NAS" style="rounded=0;whiteSpace=wrap;html=1;" vertex="1" parent="1">
          <mxGeometry x="460" y="630" width="120" height="60" as="geometry" />
        </mxCell>
        <mxCell id="hkmKzt8JZ6WH0SY0ombu-1" value="EAP783&lt;div&gt;2x 10GBase&lt;/div&gt;" style="text;html=1;align=center;verticalAlign=middle;resizable=0;points=[];autosize=1;strokeColor=default;" vertex="1" parent="1">
          <mxGeometry x="324" y="517" width="90" height="40" as="geometry" />
        </mxCell>
        <mxCell id="hkmKzt8JZ6WH0SY0ombu-3" style="edgeStyle=orthogonalEdgeStyle;rounded=0;orthogonalLoop=1;jettySize=auto;html=1;exitX=1;exitY=0.5;exitDx=0;exitDy=0;entryX=0.033;entryY=0.325;entryDx=0;entryDy=0;entryPerimeter=0;" edge="1" parent="1" source="G1tx_gsNzhjHlp4Y_8nj-1" target="hkmKzt8JZ6WH0SY0ombu-1">
          <mxGeometry relative="1" as="geometry" />
        </mxCell>
        <mxCell id="hkmKzt8JZ6WH0SY0ombu-4" style="edgeStyle=orthogonalEdgeStyle;rounded=0;orthogonalLoop=1;jettySize=auto;html=1;exitX=1;exitY=0.75;exitDx=0;exitDy=0;entryX=0.022;entryY=0.7;entryDx=0;entryDy=0;entryPerimeter=0;" edge="1" parent="1" source="G1tx_gsNzhjHlp4Y_8nj-1" target="hkmKzt8JZ6WH0SY0ombu-1">
          <mxGeometry relative="1" as="geometry" />
        </mxCell>
        <mxCell id="hkmKzt8JZ6WH0SY0ombu-5" value="Proxmox 2.5G" style="rounded=0;whiteSpace=wrap;html=1;" vertex="1" parent="1">
          <mxGeometry x="80" y="630" width="120" height="60" as="geometry" />
        </mxCell>
        <mxCell id="2P_VLReRkn-qO0rDn_2A-1" value="5G WAN" style="rounded=0;whiteSpace=wrap;html=1;" vertex="1" parent="1">
          <mxGeometry x="70" y="360" width="120" height="60" as="geometry" />
        </mxCell>
      </root>
    </mxGraphModel>
  </diagram>
</mxfile>
